{"scene":0,"asset":{"generator":"ImageToStl.com","version":"2.0"},"scenes":[{"name":"Scene","nodes":[0]}],"nodes":[{"name":"Node0","children":[1]},{"name":"Node1","mesh":0,"children":[2,3,4]},{"name":"Node2","mesh":1},{"name":"Node3","mesh":2},{"name":"Node4","mesh":3}],"materials":[{"name":"#5894DAFF","pbrMetallicRoughness":{"baseColorFactor":[0.34509805,0.5803922,0.85490197,1.0],"metallicFactor":0.05,"roughnessFactor":0.5},"doubleSided":true},{"name":"#181818FF","pbrMetallicRoughness":{"baseColorFactor":[0.09411765,0.09411765,0.09411765,1.0],"metallicFactor":0.05,"roughnessFactor":0.5},"doubleSided":true},{"name":"#CBCBCBFF","pbrMetallicRoughness":{"baseColorFactor":[0.79607844,0.79607844,0.79607844,1.0],"metallicFactor":0.05,"roughnessFactor":0.5},"doubleSided":true},{"name":"#F4F4F5FF","pbrMetallicRoughness":{"baseColorFactor":[0.95686275,0.95686275,0.9607843,1.0],"metallicFactor":0.05,"roughnessFactor":0.5},"doubleSided":true}],"meshes":[{"name":"Mesh0","primitives":[{"indices":1,"material":0,"attributes":{"POSITION":0}}]},{"name":"Mesh0","primitives":[{"indices":3,"material":1,"attributes":{"POSITION":2}}]},{"name":"Mesh0","primitives":[{"indices":5,"material":2,"attributes":{"POSITION":4}}]},{"name":"Mesh0","primitives":[{"indices":7,"material":3,"attributes":{"POSITION":6}}]}],"accessors":[{"bufferView":0,"componentType":5126,"count":13434,"type":"VEC3","min":[-13.506462,4.9939065,-18.416],"max":[-3.4932077,100.006424,1.584]},{"bufferView":1,"componentType":5123,"count":80628,"type":"SCALAR"},{"bufferView":2,"componentType":5126,"count":9838,"type":"VEC3","min":[-29.3,-20.597824,-30.032],"max":[8.5,125.997826,12.7]},{"bufferView":3,"componentType":5123,"count":59262,"type":"SCALAR"},{"bufferView":4,"componentType":5126,"count":34036,"type":"VEC3","min":[-13.2625,5.2389803,-25.448],"max":[-3.7375,99.76102,18.584]},{"bufferView":5,"componentType":5123,"count":204168,"type":"SCALAR"},{"bufferView":6,"componentType":5126,"count":5400,"type":"VEC3","min":[-25.5,-7.0,-21.832],"max":[8.5,112.0,-19.832]},{"bufferView":7,"componentType":5123,"count":32544,"type":"SCALAR"}],"bufferViews":[{"target":34962,"buffer":0,"byteLength":161208,"byteOffset":0},{"target":34963,"buffer":0,"byteLength":161256,"byteOffset":161208},{"target":34962,"buffer":0,"byteLength":118056,"byteOffset":322464},{"target":34963,"buffer":0,"byteLength":118524,"byteOffset":440520},{"target":34962,"buffer":0,"byteLength":408432,"byteOffset":559044},{"target":34963,"buffer":0,"byteLength":408336,"byteOffset":967476},{"target":34962,"buffer":0,"byteLength":64800,"byteOffset":1375812},{"target":34963,"buffer":0,"byteLength":65088,"byteOffset":1440612}],"buffers":[{"byteLength":1505700,"uri":"data:application/octet-stream;base64,"}]}