{"scene":0,"asset":{"generator":"ImageToStl.com","version":"2.0"},"scenes":[{"name":"Scene","nodes":[0]}],"nodes":[{"name":"Node0","children":[1]},{"name":"Node1","mesh":0}],"materials":[{"name":"#CBCBCBFF","pbrMetallicRoughness":{"baseColorFactor":[0.79607844,0.79607844,0.79607844,1.0],"metallicFactor":0.05,"roughnessFactor":0.5},"doubleSided":true}],"meshes":[{"name":"Mesh0","primitives":[{"indices":1,"material":0,"attributes":{"POSITION":0}}]}],"accessors":[{"bufferView":0,"componentType":5126,"count":1196,"type":"VEC3","min":[-3.5,-4.041452,0.0],"max":[3.5,4.041452,3.2]},{"bufferView":1,"componentType":5123,"count":7176,"type":"SCALAR"}],"bufferViews":[{"target":34962,"buffer":0,"byteLength":14352,"byteOffset":0},{"target":34963,"buffer":0,"byteLength":14352,"byteOffset":14352}],"buffers":[{"byteLength":28704,"uri":"data:application/octet-stream;base64,"}]}