{"scene":0,"asset":{"generator":"ImageToStl.com","version":"2.0"},"scenes":[{"name":"Scene","nodes":[0]}],"nodes":[{"name":"Node0","children":[1]},{"name":"Node1","mesh":0}],"materials":[{"name":"#A0A0A0FF","pbrMetallicRoughness":{"baseColorFactor":[0.627451,0.627451,0.627451,1.0],"metallicFactor":0.05,"roughnessFactor":0.5},"doubleSided":true}],"meshes":[{"name":"Mesh0","primitives":[{"indices":1,"material":0,"attributes":{"POSITION":0}}]}],"accessors":[{"bufferView":0,"componentType":5126,"count":6717,"type":"VEC3","min":[-5.006462,-5.0060935,0.0],"max":[5.006792,5.006425,20.0]},{"bufferView":1,"componentType":5123,"count":40314,"type":"SCALAR"}],"bufferViews":[{"target":34962,"buffer":0,"byteLength":80604,"byteOffset":0},{"target":34963,"buffer":0,"byteLength":80628,"byteOffset":80604}],"buffers":[{"byteLength":161232,"uri":"data:application/octet-stream;base64,"}]}