{"scene":0,"asset":{"generator":"ImageToStl.com","version":"2.0"},"scenes":[{"name":"Scene","nodes":[0]}],"nodes":[{"name":"Node0","children":[1]},{"name":"Node1","mesh":0}],"materials":[{"name":"#CBCBCBFF","pbrMetallicRoughness":{"baseColorFactor":[0.79607844,0.79607844,0.79607844,1.0],"metallicFactor":0.05,"roughnessFactor":0.5},"doubleSided":true}],"meshes":[{"name":"Mesh0","primitives":[{"indices":1,"material":0,"attributes":{"POSITION":0}}]}],"accessors":[{"bufferView":0,"componentType":5126,"count":504,"type":"VEC3","min":[-4.7625,-4.7610197,0.0],"max":[4.7625,4.7610197,1.016]},{"bufferView":1,"componentType":5123,"count":3024,"type":"SCALAR"}],"bufferViews":[{"target":34962,"buffer":0,"byteLength":6048,"byteOffset":0},{"target":34963,"buffer":0,"byteLength":6048,"byteOffset":6048}],"buffers":[{"byteLength":12096,"uri":"data:application/octet-stream;base64,"}]}