{"scene":0,"asset":{"generator":"ImageToStl.com","version":"2.0"},"scenes":[{"name":"Scene","nodes":[0]}],"nodes":[{"name":"Node0","children":[1]},{"name":"Node1","mesh":0}],"materials":[{"name":"#A0A0A0FF","pbrMetallicRoughness":{"baseColorFactor":[0.627451,0.627451,0.627451,1.0],"metallicFactor":0.05,"roughnessFactor":0.5},"doubleSided":true}],"meshes":[{"name":"Mesh0","primitives":[{"indices":1,"material":0,"attributes":{"POSITION":0}}]}],"accessors":[{"bufferView":0,"componentType":5126,"count":2700,"type":"VEC3","min":[0.0,0.0,0.0],"max":[34.0,34.0,2.0]},{"bufferView":1,"componentType":5123,"count":16272,"type":"SCALAR"}],"bufferViews":[{"target":34962,"buffer":0,"byteLength":32400,"byteOffset":0},{"target":34963,"buffer":0,"byteLength":32544,"byteOffset":32400}],"buffers":[{"byteLength":64944,"uri":"data:application/octet-stream;base64,"}]}