{"scene":0,"asset":{"generator":"ImageToStl.com","version":"2.0"},"scenes":[{"name":"Scene","nodes":[0]}],"nodes":[{"name":"Node0","children":[1]},{"name":"Node1","mesh":0}],"materials":[{"name":"#A0A0A0FF","pbrMetallicRoughness":{"baseColorFactor":[0.627451,0.627451,0.627451,1.0],"metallicFactor":0.05,"roughnessFactor":0.5},"doubleSided":true}],"meshes":[{"name":"Mesh0","primitives":[{"indices":1,"material":0,"attributes":{"POSITION":0}}]}],"accessors":[{"bufferView":0,"componentType":5126,"count":1080,"type":"VEC3","min":[0.0,0.0,0.0],"max":[17.0,73.8,4.0]},{"bufferView":1,"componentType":5123,"count":6516,"type":"SCALAR"}],"bufferViews":[{"target":34962,"buffer":0,"byteLength":12960,"byteOffset":0},{"target":34963,"buffer":0,"byteLength":13032,"byteOffset":12960}],"buffers":[{"byteLength":25992,"uri":"data:application/octet-stream;base64,"}]}